<?xml version="1.0" standalone="no"?>
<!DOCTYPE svg PUBLIC "-//W3C//DTD SVG 20010904//EN"
 "http://www.w3.org/TR/2001/REC-SVG-20010904/DTD/svg10.dtd">
<svg version="1.0" xmlns="http://www.w3.org/2000/svg"
 width="700.000000pt" height="700.000000pt" viewBox="0 0 700.000000 700.000000"
 preserveAspectRatio="xMidYMid meet">
<metadata>
Created by potrace 1.14, written by Peter Selinger 2001-2017
</metadata>
<g transform="translate(0.000000,700.000000) scale(0.100000,-0.100000)"
fill="#000000" stroke="none">
<path d="M3285 6994 c-22 -2 -89 -9 -150 -14 -501 -49 -1019 -224 -1460 -494
-136 -83 -331 -222 -355 -254 -10 -13 -22 -23 -27 -23 -17 0 -165 -134 -298
-270 -554 -568 -881 -1262 -977 -2074 -16 -139 -16 -595 0 -730 67 -550 225
-1016 499 -1465 140 -228 284 -412 487 -618 577 -588 1293 -935 2131 -1034
144 -16 586 -16 735 1 315 35 642 117 935 233 210 83 555 267 555 295 0 7 9
13 21 13 52 0 353 235 558 435 595 581 944 1296 1043 2140 7 62 13 220 13 365
0 145 -6 303 -13 365 -99 844 -447 1558 -1043 2141 -555 542 -1251 875 -2029
970 -118 14 -539 27 -625 18z m-145 -84 c0 -5 -4 -10 -10 -10 -5 0 -10 5 -10
10 0 6 5 10 10 10 6 0 10 -4 10 -10z m418 -751 c167 -38 298 -117 465 -279
152 -147 252 -290 381 -549 293 -586 493 -1551 581 -2801 21 -307 33 -650 41
-1163 l7 -447 -116 0 c-113 0 -117 1 -122 23 -7 30 -325 1796 -325 1807 0 4
-19 16 -42 25 -33 14 -82 19 -204 23 -168 5 -325 -6 -579 -38 -348 -45 -548
-62 -800 -67 -261 -5 -285 -3 -412 33 l-23 6 0 -906 0 -906 -236 0 -236 0 7
157 c3 87 19 304 36 483 16 179 36 429 44 555 100 1514 165 2115 280 2583 90
367 222 695 373 927 164 252 338 412 566 521 87 42 94 43 161 38 39 -3 107
-14 153 -25z m-2098 -664 c0 -8 -4 -15 -10 -15 -5 0 -10 7 -10 15 0 8 5 15 10
15 6 0 10 -7 10 -15z m4850 -45 c0 -5 -4 -10 -10 -10 -5 0 -10 5 -10 10 0 6 5
10 10 10 6 0 10 -4 10 -10z m-4760 -465 c0 -8 -7 -15 -15 -15 -8 0 -15 7 -15
15 0 8 7 15 15 15 8 0 15 -7 15 -15z m-910 -655 c0 -5 -4 -10 -10 -10 -5 0
-10 5 -10 10 0 6 5 10 10 10 6 0 10 -4 10 -10z m230 -560 c0 -5 -4 -10 -10
-10 -5 0 -10 5 -10 10 0 6 5 10 10 10 6 0 10 -4 10 -10z m5744 -621 c-3 -5
-10 -7 -15 -3 -5 3 -7 10 -3 15 3 5 10 7 15 3 5 -3 7 -10 3 -15z m-4974 -79
c0 -5 -4 -10 -10 -10 -5 0 -10 5 -10 10 0 6 5 10 10 10 6 0 10 -4 10 -10z
m-830 -195 c0 -8 -7 -15 -15 -15 -8 0 -15 7 -15 15 0 8 7 15 15 15 8 0 15 -7
15 -15z m5000 -5 c0 -5 -4 -10 -10 -10 -5 0 -10 5 -10 10 0 6 5 10 10 10 6 0
10 -4 10 -10z m750 -105 c0 -8 -7 -15 -15 -15 -8 0 -15 7 -15 15 0 8 7 15 15
15 8 0 15 -7 15 -15z m-370 -681 c0 -9 -7 -14 -17 -12 -25 5 -28 28 -4 28 12
0 21 -6 21 -16z m440 -48 c0 -11 -19 -15 -25 -6 -3 5 1 10 9 10 9 0 16 -2 16
-4z m-4180 -396 c0 -5 -4 -10 -10 -10 -5 0 -10 5 -10 10 0 6 5 10 10 10 6 0
10 -4 10 -10z m-530 -70 c0 -11 -7 -20 -15 -20 -8 0 -15 9 -15 20 0 11 7 20
15 20 8 0 15 -9 15 -20z m4110 -66 c0 -8 -4 -12 -10 -9 -5 3 -10 10 -10 16 0
5 5 9 10 9 6 0 10 -7 10 -16z m-4540 -304 c0 -5 -4 -10 -10 -10 -5 0 -10 5
-10 10 0 6 5 10 10 10 6 0 10 -4 10 -10z m2344 -381 c-3 -5 -10 -7 -15 -3 -5
3 -7 10 -3 15 3 5 10 7 15 3 5 -3 7 -10 3 -15z m-1564 -269 c0 -5 -4 -10 -10
-10 -5 0 -10 5 -10 10 0 6 5 10 10 10 6 0 10 -4 10 -10z"/>
<path d="M3365 5748 c-222 -42 -405 -266 -534 -654 -133 -401 -193 -887 -208
-1688 l-6 -329 191 7 c330 11 757 60 1062 121 14 3 42 8 63 11 82 11 357 61
361 65 2 2 11 146 20 319 18 336 14 503 -20 785 -34 283 -116 545 -242 769
-105 186 -290 391 -484 534 -103 77 -108 78 -203 60z m-325 -1804 c0 -8 -5
-12 -10 -9 -6 4 -8 11 -5 16 9 14 15 11 15 -7z"/>
</g>
</svg>
