<svg width="35" height="86" viewBox="0 0 35 86" fill="none" xmlns="http://www.w3.org/2000/svg">
<path d="M33.5 43C33.5 52.1528 26.297 59.5 17.5 59.5C8.703 59.5 1.5 52.1528 1.5 43C1.5 33.8471 8.703 26.5 17.5 26.5C26.297 26.5 33.5 33.8471 33.5 43Z" stroke="black" stroke-width="3"/>
<path d="M34 42C34 48.764 30.8 72.1161 2 85" stroke="black" stroke-width="2"/>
<path d="M12.738 6.1081L32.1446 1.15964" stroke="black" stroke-width="2" stroke-linecap="round"/>
<path d="M21.8297 14.5686L32.4882 1.12553" stroke="black" stroke-width="2" stroke-linecap="round"/>
<path d="M1 44C1 37.236 4.2 13.8839 33 1" stroke="black" stroke-width="2"/>
<path d="M12.002 51.04H16.862V35.524C15.542 36.772 14.558 38.02 13.91 39.268L10.166 37.108C10.886 35.884 12.05 34.504 13.658 32.968C15.266 31.432 16.238 30.664 16.574 30.664C16.934 30.664 17.81 31.084 19.202 31.924C20.594 32.74 21.35 33.28 21.47 33.544V51.04H24.818V55H12.002V51.04Z" fill="#A32E2E"/>
<path d="M20.949 80.0175L1.5424 84.9659" stroke="black" stroke-width="2" stroke-linecap="round"/>
<path d="M11.8573 71.5569L1.19885 85" stroke="black" stroke-width="2" stroke-linecap="round"/>
</svg>
