<?xml version="1.0" encoding="iso-8859-1"?>
<svg width="3988" height="1646" viewBox="0 0 3988 1646" fill="none" xmlns="http://www.w3.org/2000/svg">
<!--А-->
<path d="M1819.88 382.594C1822.19 382.594 1824.19 383.281 1825.88 384.656C1827.62 385.969 1829.12 387.75 1830.38 390C1831.69 392.25 1832.78 394.844 1833.66 397.781C1834.53 400.719 1835.25 403.812 1835.81 407.062C1836.38 410.25 1836.81 413.5 1837.12 416.812C1837.44 420.062 1837.66 423.125 1837.78 426C1837.91 428.875 1837.97 431.469 1837.97 433.781C1838.03 436.094 1838.06 437.906 1838.06 439.219H1835.81L1832.25 419.438C1831.94 419.125 1831.22 418.938 1830.09 418.875C1829.03 418.812 1827.75 418.844 1826.25 418.969C1824.81 419.094 1823.22 419.281 1821.47 419.531C1819.78 419.719 1818.16 419.875 1816.59 420C1815.09 420.062 1813.72 420.094 1812.47 420.094C1811.22 420.031 1810.31 419.812 1809.75 419.438V439.219H1804.97C1804.97 439.031 1804.97 438.688 1804.97 438.188C1805.03 437.625 1805.06 437.062 1805.06 436.5C1805.06 435.938 1805.09 435.406 1805.16 434.906C1805.22 434.406 1805.25 434.062 1805.25 433.875C1805.62 430.25 1805.91 426.594 1806.09 422.906C1806.34 419.156 1806.62 415.531 1806.94 412.031C1807.25 408.531 1807.66 405.188 1808.16 402C1808.72 398.812 1809.5 395.938 1810.5 393.375C1811.5 390.75 1812.75 388.531 1814.25 386.719C1815.75 384.844 1817.62 383.469 1819.88 382.594ZM1821.38 386.906C1819.75 386.906 1818.38 387.5 1817.25 388.688C1816.19 389.812 1815.31 391.312 1814.62 393.188C1813.94 395 1813.41 397.031 1813.03 399.281C1812.66 401.531 1812.41 403.75 1812.28 405.938C1812.16 408.062 1812.06 410.062 1812 411.938C1812 413.75 1812 415.156 1812 416.156C1815.06 416.156 1818.19 415.938 1821.38 415.5C1824.56 415 1827.56 414.5 1830.38 414C1830.44 413.75 1830.47 413.344 1830.47 412.781C1830.53 412.219 1830.56 411.594 1830.56 410.906C1830.62 410.219 1830.66 409.562 1830.66 408.938C1830.72 408.312 1830.75 407.906 1830.75 407.719C1830.75 405.656 1830.62 403.688 1830.38 401.812C1830.19 399.938 1829.75 398.125 1829.06 396.375C1828.44 394.562 1827.5 392.875 1826.25 391.312C1825.06 389.75 1823.44 388.281 1821.38 386.906Z" fill="white"/>
<!--н-->
<path d="M1628.06 982.156C1628.06 977.656 1628.06 973.406 1628.06 969.406C1628.12 965.406 1628.22 961.469 1628.34 957.594C1628.53 953.656 1628.75 949.688 1629 945.688C1629.25 941.625 1629.59 937.25 1630.03 932.562H1632.75V968.562H1653.19C1653.12 966.312 1653.09 963.906 1653.09 961.344C1653.09 958.719 1653.06 956.094 1653 953.469C1652.94 950.781 1652.88 948.188 1652.81 945.688C1652.81 943.125 1652.81 940.719 1652.81 938.469C1652.81 936.219 1652.81 934.25 1652.81 932.562C1652.81 930.875 1652.81 929.562 1652.81 928.625C1653 928.625 1653.31 928.688 1653.75 928.812C1654.25 928.875 1654.72 929 1655.16 929.188C1655.66 929.312 1656.09 929.531 1656.47 929.844C1656.84 930.094 1657.03 930.438 1657.03 930.875V1001.09L1654.12 1000.53C1654 1000.53 1653.91 1000.12 1653.84 999.312C1653.78 998.5 1653.72 997.5 1653.66 996.312C1653.66 995.062 1653.62 993.656 1653.56 992.094C1653.56 990.469 1653.53 988.906 1653.47 987.406C1653.47 985.844 1653.44 984.375 1653.38 983C1653.38 981.625 1653.38 980.469 1653.38 979.531C1653.38 978.656 1653.38 977.469 1653.38 975.969C1653.38 974.469 1653.34 972.75 1653.28 970.812L1632.75 974.469L1632.56 1001.19H1628.06C1628.06 1001.12 1628.06 1000.69 1628.06 999.875C1628.06 999.062 1628.06 998.062 1628.06 996.875C1628.06 995.625 1628.06 994.281 1628.06 992.844C1628.06 991.344 1628.06 989.906 1628.06 988.531C1628.06 987.156 1628.06 985.906 1628.06 984.781C1628.06 983.656 1628.06 982.781 1628.06 982.156Z" fill="white"/>
<!--т-->
<path d="M1821.28 667.094L1822.78 662.219C1822.84 662.156 1823.31 662.094 1824.19 662.031C1825.12 661.906 1826.34 661.781 1827.84 661.656C1829.34 661.469 1831.03 661.281 1832.91 661.094C1834.78 660.906 1836.69 660.719 1838.62 660.531C1840.62 660.344 1842.56 660.156 1844.44 659.969C1846.38 659.781 1848.16 659.594 1849.78 659.406C1849.78 659.406 1850.06 659.406 1850.62 659.406C1851.19 659.406 1851.81 659.406 1852.5 659.406C1853.19 659.406 1853.84 659.406 1854.47 659.406C1855.09 659.406 1855.5 659.406 1855.69 659.406C1857.19 659.406 1858.22 659.688 1858.78 660.25C1859.34 660.812 1859.62 662.031 1859.62 663.906L1842.56 665.875C1842.44 669.812 1842.5 673.938 1842.75 678.25C1843 682.562 1843.31 686.938 1843.69 691.375C1844.06 695.75 1844.41 700.094 1844.72 704.406C1845.09 708.719 1845.28 712.844 1845.28 716.781C1845.28 717.344 1845.09 717.75 1844.72 718C1844.41 718.188 1844 718.312 1843.5 718.375C1843.06 718.438 1842.59 718.406 1842.09 718.281C1841.59 718.219 1841.16 718.125 1840.78 718C1840.59 717.188 1840.41 715.781 1840.22 713.781C1840.03 711.781 1839.84 709.438 1839.66 706.75C1839.47 704.062 1839.28 701.156 1839.09 698.031C1838.91 694.906 1838.72 691.781 1838.53 688.656C1838.34 685.531 1838.16 682.562 1837.97 679.75C1837.78 676.875 1837.62 674.375 1837.5 672.25C1837.38 670.062 1837.25 668.375 1837.12 667.188C1837.06 666 1837 665.562 1836.94 665.875L1821.28 667.094Z" fill="white"/>
<!--а-->
<path d="M1769.78 983.938C1769.78 980.375 1770.75 977.781 1772.69 976.156C1774.69 974.531 1777.28 973.719 1780.47 973.719C1781.72 973.719 1782.88 973.75 1783.94 973.812C1785.06 973.875 1786.12 974.031 1787.12 974.281C1788.12 974.531 1789.09 974.906 1790.03 975.406C1791.03 975.906 1792.06 976.625 1793.12 977.562C1793.12 977.375 1793.12 977 1793.12 976.438C1793.19 975.812 1793.22 975.156 1793.22 974.469C1793.22 973.781 1793.22 973.156 1793.22 972.594C1793.22 971.969 1793.22 971.531 1793.22 971.281C1793.16 970.156 1793.12 968.719 1793.12 966.969C1793.12 965.156 1792.97 963.312 1792.66 961.438C1792.41 959.562 1791.84 957.781 1790.97 956.094C1790.16 954.406 1788.81 953.125 1786.94 952.25C1785.62 952.25 1784.41 952.469 1783.28 952.906C1782.16 953.344 1781.03 953.812 1779.91 954.312C1778.78 954.812 1777.66 955.281 1776.53 955.719C1775.41 956.094 1774.19 956.281 1772.88 956.281C1772.88 954.719 1773.34 953.438 1774.28 952.438C1775.28 951.375 1776.47 950.562 1777.84 950C1779.22 949.438 1780.66 949.062 1782.16 948.875C1783.66 948.688 1784.97 948.594 1786.09 948.594C1787.22 948.781 1788.25 949 1789.19 949.25C1790.19 949.5 1791.09 950 1791.91 950.75C1792.78 951.5 1793.56 952.656 1794.25 954.219C1795 955.719 1795.62 957.844 1796.12 960.594C1796.69 963.344 1797.16 966.844 1797.53 971.094C1797.97 975.281 1798.31 980.438 1798.56 986.562C1798.69 987.375 1798.41 988.094 1797.72 988.719C1797.09 989.281 1796.22 989.781 1795.09 990.219C1793.97 990.594 1792.69 990.938 1791.25 991.25C1789.88 991.5 1788.47 991.688 1787.03 991.812C1785.59 991.938 1784.22 992.031 1782.91 992.094C1781.59 992.156 1780.5 992.188 1779.62 992.188C1778.5 992.188 1777.34 992 1776.16 991.625C1775.03 991.25 1773.97 990.719 1772.97 990.031C1772.03 989.281 1771.25 988.406 1770.62 987.406C1770.06 986.344 1769.78 985.188 1769.78 983.938ZM1781.97 977.375C1778.84 978.25 1776.66 979.312 1775.41 980.562C1774.16 981.75 1773.59 982.906 1773.72 984.031C1773.91 985.156 1774.66 986.188 1775.97 987.125C1777.28 988 1778.88 988.594 1780.75 988.906C1782.62 989.156 1784.66 989 1786.84 988.438C1789.03 987.812 1791.12 986.625 1793.12 984.875C1792.38 983.062 1791.62 981.688 1790.88 980.75C1790.12 979.75 1789.31 979 1788.44 978.5C1787.56 978 1786.59 977.688 1785.53 977.562C1784.47 977.438 1783.28 977.375 1781.97 977.375Z" fill="white"/>
<!--р-->
<path d="M2003.97 668.719C2003.72 668.906 2003.38 668.969 2002.94 668.906C2002.5 668.844 2002.09 668.75 2001.72 668.625C2001.34 668.438 2001 668.219 2000.69 667.969C2000.44 667.656 2000.31 667.312 2000.31 666.938C2000.31 664.812 2000.97 662.875 2002.28 661.125C2003.59 659.312 2005.22 657.781 2007.16 656.531C2009.09 655.219 2011.16 654.219 2013.34 653.531C2015.53 652.781 2017.53 652.406 2019.34 652.406C2022.22 652.406 2024.81 652.906 2027.12 653.906C2029.5 654.844 2031.5 656.156 2033.12 657.844C2034.81 659.531 2036.09 661.5 2036.97 663.75C2037.91 666 2038.38 668.406 2038.38 670.969C2038.44 674.219 2037.69 677.188 2036.12 679.875C2034.62 682.562 2032.62 684.875 2030.12 686.812C2027.69 688.688 2024.94 690.125 2021.88 691.125C2018.88 692.062 2015.91 692.406 2012.97 692.156C2013.09 694.406 2013.06 696.969 2012.88 699.844C2012.69 702.781 2012.44 705.969 2012.12 709.406C2011.81 712.844 2011.41 716.469 2010.91 720.281C2010.47 724.156 2010 728.125 2009.5 732.188C2009.5 732.25 2009.31 732.281 2008.94 732.281C2008.56 732.281 2008.16 732.219 2007.72 732.094C2007.34 732.031 2006.94 731.938 2006.5 731.812C2006.12 731.75 2005.91 731.75 2005.84 731.812C2006.28 726.625 2006.62 721.375 2006.88 716.062C2007.12 710.75 2007.22 705.406 2007.16 700.031C2007.09 694.719 2006.81 689.438 2006.31 684.188C2005.81 678.938 2005.03 673.781 2003.97 668.719ZM2018.22 657.656C2017.03 657.719 2015.75 657.906 2014.38 658.219C2013 658.469 2011.78 658.875 2010.72 659.438C2009.66 660 2008.81 660.75 2008.19 661.688C2007.56 662.625 2007.34 663.781 2007.53 665.156C2007.66 665.781 2007.81 666.688 2008 667.875C2008.25 669.062 2008.5 670.406 2008.75 671.906C2009.06 673.406 2009.34 674.969 2009.59 676.594C2009.91 678.219 2010.19 679.781 2010.44 681.281C2010.75 682.781 2011 684.156 2011.19 685.406C2011.44 686.594 2011.62 687.5 2011.75 688.125C2012.5 688 2013.56 687.875 2014.94 687.75C2016.31 687.625 2017.78 687.375 2019.34 687C2020.91 686.625 2022.5 686.125 2024.12 685.5C2025.81 684.812 2027.38 683.875 2028.81 682.688C2030.25 681.5 2031.5 680.031 2032.56 678.281C2033.69 676.469 2034.44 674.25 2034.81 671.625C2034.81 669.188 2034.38 667.094 2033.5 665.344C2032.62 663.594 2031.44 662.156 2029.94 661.031C2028.44 659.844 2026.66 659 2024.59 658.5C2022.59 657.938 2020.47 657.656 2018.22 657.656Z" fill="white"/>
<!--е-->
<path d="M1805.44 1335.97C1805.44 1334.09 1805.84 1332.03 1806.66 1329.78C1807.47 1327.47 1808.56 1325.34 1809.94 1323.41C1811.38 1321.41 1812.97 1319.75 1814.72 1318.44C1816.53 1317.06 1818.41 1316.38 1820.34 1316.38C1821.41 1316.38 1822.44 1316.59 1823.44 1317.03C1824.5 1317.47 1825.5 1318.06 1826.44 1318.81C1827.44 1319.5 1828.31 1320.31 1829.06 1321.25C1829.88 1322.12 1830.5 1323.06 1830.94 1324.06C1831.38 1325.06 1831.59 1326.03 1831.59 1326.97C1831.66 1327.91 1831.41 1328.72 1830.84 1329.41L1811.06 1333.06C1810.81 1333.12 1810.59 1333.44 1810.41 1334C1810.22 1334.5 1810.06 1335.16 1809.94 1335.97C1809.81 1336.78 1809.69 1337.69 1809.56 1338.69C1809.5 1339.62 1809.44 1340.56 1809.38 1341.5C1809.31 1342.38 1809.28 1343.19 1809.28 1343.94C1809.28 1344.62 1809.28 1345.16 1809.28 1345.53C1809.28 1347.28 1809.69 1348.72 1810.5 1349.84C1811.38 1350.91 1812.47 1351.72 1813.78 1352.28C1815.09 1352.84 1816.56 1353.22 1818.19 1353.41C1819.88 1353.59 1821.53 1353.69 1823.16 1353.69C1824.78 1353.69 1826.31 1353.62 1827.75 1353.5C1829.19 1353.38 1830.38 1353.31 1831.31 1353.31C1831.31 1353.56 1831.22 1353.84 1831.03 1354.16C1830.84 1354.47 1830.62 1354.78 1830.38 1355.09C1830.12 1355.34 1829.88 1355.59 1829.62 1355.84C1829.38 1356.03 1829.22 1356.16 1829.16 1356.22C1828.66 1356.34 1827.88 1356.53 1826.81 1356.78C1825.81 1356.97 1824.72 1357.16 1823.53 1357.34C1822.41 1357.53 1821.34 1357.69 1820.34 1357.81C1819.34 1357.94 1818.66 1358 1818.28 1358C1816.34 1358.38 1814.66 1358.34 1813.22 1357.91C1811.78 1357.47 1810.56 1356.72 1809.56 1355.66C1808.56 1354.59 1807.75 1353.31 1807.12 1351.81C1806.5 1350.25 1806.03 1348.59 1805.72 1346.84C1805.41 1345.09 1805.22 1343.28 1805.16 1341.41C1805.16 1339.53 1805.25 1337.72 1805.44 1335.97ZM1819.03 1319.94C1818.47 1319.94 1817.72 1320.25 1816.78 1320.88C1815.91 1321.44 1815.06 1322.19 1814.25 1323.12C1813.5 1324 1812.84 1324.97 1812.28 1326.03C1811.78 1327.03 1811.62 1327.91 1811.81 1328.66C1813.44 1328.84 1815.12 1328.81 1816.88 1328.56C1818.62 1328.31 1820.22 1327.94 1821.66 1327.44C1823.09 1326.88 1824.28 1326.25 1825.22 1325.56C1826.16 1324.81 1826.59 1324.06 1826.53 1323.31C1826.53 1322.56 1825.94 1321.91 1824.75 1321.34C1823.62 1320.72 1821.72 1320.25 1819.03 1319.94Z" fill="white"/>
<!--с-->
<path d="M2166.78 883.969C2166.78 881.656 2167.16 879.094 2167.91 876.281C2168.66 873.469 2169.75 870.875 2171.19 868.5C2172.62 866.062 2174.41 864.031 2176.53 862.406C2178.66 860.781 2181.12 859.969 2183.94 859.969C2185.38 859.781 2186.53 859.938 2187.41 860.438C2188.28 860.875 2188.94 861.594 2189.38 862.594C2189.88 863.594 2190.19 864.75 2190.31 866.062C2190.5 867.312 2190.59 868.625 2190.59 870C2190.66 871.312 2190.66 872.562 2190.59 873.75C2190.59 874.875 2190.66 875.812 2190.78 876.562H2188.44C2188.38 876.188 2188.25 875.312 2188.06 873.938C2187.94 872.5 2187.69 871.031 2187.31 869.531C2186.94 868.031 2186.41 866.688 2185.72 865.5C2185.09 864.312 2184.19 863.719 2183 863.719C2181.25 863.719 2179.59 864.406 2178.03 865.781C2176.53 867.156 2175.22 868.812 2174.09 870.75C2172.97 872.688 2172.06 874.688 2171.38 876.75C2170.69 878.812 2170.34 880.531 2170.34 881.906C2170.41 883.469 2170.62 885.188 2171 887.062C2171.38 888.875 2171.97 890.531 2172.78 892.031C2173.66 893.531 2174.78 894.75 2176.16 895.688C2177.53 896.625 2179.22 896.906 2181.22 896.531C2182.72 896.531 2184.16 896.219 2185.53 895.594C2186.91 894.969 2188.25 894.312 2189.56 893.625C2190.88 892.938 2192.19 892.281 2193.5 891.656C2194.88 891.031 2196.31 890.719 2197.81 890.719C2197.81 892.344 2197.22 893.781 2196.03 895.031C2194.84 896.219 2193.38 897.188 2191.62 897.938C2189.94 898.688 2188.12 899.25 2186.19 899.625C2184.31 900 2182.72 900.188 2181.41 900.188C2179.28 900.188 2177.31 899.75 2175.5 898.875C2173.75 898 2172.22 896.844 2170.91 895.406C2169.59 893.906 2168.56 892.188 2167.81 890.25C2167.12 888.25 2166.78 886.156 2166.78 883.969Z" fill="white"/>
<!--центр-->
<path data-start="0" data-duration="100"
d="M1468 901.142C1568.6 765.428 1615.75 696.713 1739.22 564.29M1739.22 564.29C1739.22 564.29 1901.96 448.991 1901.96 394.733C1901.96 340.475 1861.28 286.216 1807.03 340.475C1752.79 394.734 1739.22 564.29 1739.22 564.29ZM1739.22 564.29C1718.58 669.199 1698.54 729.325 1698.54 837.842M1698.54 837.842C1710.5 911.551 1703.06 964.444 1675.94 1009.66C1648.82 1054.87 1587.79 1018.7 1594.57 973.487C1601.35 928.272 1653.76 879.056 1698.54 837.842ZM1698.54 837.842L1775.39 792.626M1775.39 792.626C1853.51 744.828 1890.66 715.761 1901.96 679.589C1913.26 643.416 1847.71 589.158 1807.03 647.938C1766.35 706.718 1775.03 746.49 1775.39 792.626ZM1775.39 792.626L1807.03 869.492M1807.03 869.492C1807.03 869.492 1865.8 973.487 1829.63 1009.66C1793.47 1045.83 1728.04 1020.59 1730.18 973.487C1732.33 926.382 1819.21 864.117 1807.03 869.492ZM1807.03 869.492L1965.24 765.497M1965.24 765.497C2022.4 732.706 2055.65 720.282 2066.95 679.589C2078.26 638.895 2024.15 600.1 1992.37 647.938C1960.58 695.776 1971.47 747.619 1965.24 765.497ZM1965.24 765.497L1901.96 1154.35M1901.96 1154.35C1896.3 1247 1870.32 1337.47 1852.23 1375.9C1834.15 1414.33 1775.39 1434.68 1775.39 1348.77C1775.39 1262.86 1901.96 1154.35 1901.96 1154.35ZM1901.96 1154.35C1989.68 1049.11 2066.95 894.36 2087.3 869.492C2107.64 844.624 2142.68 802.828 2186.74 806.191M2186.74 806.191C2237.02 838.267 2222.91 905.664 2204.83 921.49C2186.74 937.315 2159.04 926.951 2148.32 901.142C2137.6 875.334 2155.89 837.352 2186.74 806.191ZM2186.74 806.191C2229.33 783.165 2268.11 754.194 2281.67 729.325C2295.23 704.457 2304.77 654.88 2354 616.287" stroke="white" stroke-width="8"/>
<!--нижняя стрелка-->
<path d="M2354.65 617.195C2270.75 1121.03 2136.92 1355.93 1649.55 1638.48" stroke="white" stroke-width="8" stroke-linecap="round" stroke-linejoin="round"/>
<!--верхняя стрелка-->
<path d="M1468.69 897.493C1593.96 457.254 1749 260.361 2185.64 4.00707" stroke="white" stroke-width="8" stroke-miterlimit="2.45859" stroke-linecap="round" stroke-linejoin="round"/>
</svg>
