<svg width="35" height="86" viewBox="0 0 35 86" fill="none" xmlns="http://www.w3.org/2000/svg">
<path d="M33.5 43C33.5 52.1528 26.297 59.5 17.5 59.5C8.703 59.5 1.5 52.1528 1.5 43C1.5 33.8471 8.703 26.5 17.5 26.5C26.297 26.5 33.5 33.8471 33.5 43Z" stroke="black" stroke-width="3"/>
<path d="M34 42C34 48.764 30.8 72.1161 2 85" stroke="black" stroke-width="2"/>
<path d="M12.738 6.1081L32.1446 1.15964" stroke="black" stroke-width="2" stroke-linecap="round"/>
<path d="M21.8297 14.5686L32.4882 1.12553" stroke="black" stroke-width="2" stroke-linecap="round"/>
<path d="M1 44C1 37.236 4.2 13.8839 33 1" stroke="black" stroke-width="2"/>
<path d="M17.5024 30.664C18.2944 30.664 19.4464 31.348 20.9584 32.716C22.4944 34.06 23.5504 35.188 24.1264 36.1C24.3904 36.532 24.5224 37.516 24.5224 39.052C24.5224 40.564 24.3664 41.572 24.0544 42.076C23.7424 42.556 22.4224 43.528 20.0944 44.992C17.7664 46.432 16.3144 47.524 15.7384 48.268C15.5464 48.532 15.4504 49.024 15.4504 49.744V51.04H24.3784V55H10.4824V50.104C10.4824 48.688 10.6504 47.644 10.9864 46.972C11.3224 46.3 12.0544 45.508 13.1824 44.596C14.3104 43.66 15.5464 42.76 16.8904 41.896C18.2344 41.008 19.0384 40.456 19.3024 40.24C19.5664 40.024 19.6984 39.628 19.6984 39.052C19.6984 38.476 19.6144 37.948 19.4464 37.468C19.3024 36.964 19.0144 36.484 18.5824 36.028C18.1504 35.548 17.7544 35.308 17.3944 35.308C17.0584 35.308 16.5064 35.764 15.7384 36.676C14.9704 37.564 14.4664 38.56 14.2264 39.664L10.3384 37.36C10.6744 35.824 11.6224 34.324 13.1824 32.86C14.7664 31.396 16.2064 30.664 17.5024 30.664Z" fill="#A32E2E"/>
<path d="M20.949 80.0175L1.5424 84.9659" stroke="black" stroke-width="2" stroke-linecap="round"/>
<path d="M11.8573 71.5569L1.19885 85" stroke="black" stroke-width="2" stroke-linecap="round"/>
</svg>
