<svg width="35" height="86" viewBox="0 0 35 86" fill="none" xmlns="http://www.w3.org/2000/svg">
<path d="M33.5 43C33.5 52.1528 26.297 59.5 17.5 59.5C8.703 59.5 1.5 52.1528 1.5 43C1.5 33.8471 8.703 26.5 17.5 26.5C26.297 26.5 33.5 33.8471 33.5 43Z" stroke="black" stroke-width="3"/>
<path d="M34 42C34 48.764 30.8 72.1161 2 85" stroke="black" stroke-width="2"/>
<path d="M12.738 6.1081L32.1446 1.15964" stroke="black" stroke-width="2" stroke-linecap="round"/>
<path d="M21.8297 14.5686L32.4882 1.12553" stroke="black" stroke-width="2" stroke-linecap="round"/>
<path d="M1 44C1 37.236 4.2 13.8839 33 1" stroke="black" stroke-width="2"/>
<path d="M14.2984 46.216C14.5384 47.464 15.0784 48.592 15.9184 49.6C16.7824 50.608 17.4424 51.112 17.8984 51.112C18.3784 51.112 18.8824 50.62 19.4104 49.636C19.6024 49.252 19.6984 48.58 19.6984 47.62C19.6984 46.66 19.5424 45.976 19.2304 45.568C18.1024 44.296 16.8784 43.552 15.5584 43.336V40.924C16.8784 40.444 17.9584 39.88 18.7984 39.232C19.1584 38.968 19.3384 38.32 19.3384 37.288C19.3384 36.832 19.0984 36.4 18.6184 35.992C18.1384 35.56 17.7424 35.344 17.4304 35.344C17.1184 35.344 16.6144 35.788 15.9184 36.676C15.2464 37.564 14.8024 38.548 14.5864 39.628L10.6984 37.396C11.0344 35.86 11.9464 34.36 13.4344 32.896C14.9224 31.408 16.2784 30.664 17.5024 30.664C18.2944 30.664 19.5064 31.3 21.1384 32.572C22.7704 33.82 23.6944 34.768 23.9104 35.416C24.0784 35.872 24.1624 36.784 24.1624 38.152C24.1624 39.496 24.0304 40.336 23.7664 40.672C23.3104 41.224 22.7224 41.692 22.0024 42.076C23.1304 42.964 23.8264 43.636 24.0904 44.092C24.3784 44.524 24.5224 45.604 24.5224 47.332C24.5224 49.036 24.3664 50.2 24.0544 50.824C23.7424 51.424 22.7584 52.348 21.1024 53.596C19.4704 54.82 18.2704 55.432 17.5024 55.432C16.2064 55.432 14.7664 54.724 13.1824 53.308C11.6224 51.892 10.6744 50.428 10.3384 48.916L14.2984 46.216Z" fill="#A32E2E"/>
<path d="M20.949 80.0175L1.5424 84.9659" stroke="black" stroke-width="2" stroke-linecap="round"/>
<path d="M11.8573 71.5569L1.19885 85" stroke="black" stroke-width="2" stroke-linecap="round"/>
</svg>
