<svg width="35" height="86" viewBox="0 0 35 86" fill="none" xmlns="http://www.w3.org/2000/svg">
<path d="M33.5 43C33.5 52.1528 26.297 59.5 17.5 59.5C8.703 59.5 1.5 52.1528 1.5 43C1.5 33.8471 8.703 26.5 17.5 26.5C26.297 26.5 33.5 33.8471 33.5 43Z" stroke="black" stroke-width="3"/>
<path d="M34 42C34 48.764 30.8 72.1161 2 85" stroke="black" stroke-width="2"/>
<path d="M12.738 6.1081L32.1446 1.15964" stroke="black" stroke-width="2" stroke-linecap="round"/>
<path d="M21.8297 14.5686L32.4882 1.12553" stroke="black" stroke-width="2" stroke-linecap="round"/>
<path d="M1 44C1 37.236 4.2 13.8839 33 1" stroke="black" stroke-width="2"/>
<path d="M23.4148 55H18.8068V49.888H14.2348L10.1308 47.512C10.6348 45.376 11.3908 42.952 12.3988 40.24C13.4308 37.504 14.3908 35.224 15.2788 33.4C16.1668 31.576 16.7428 30.664 17.0068 30.664C17.3908 30.664 18.5068 31.216 20.3548 32.32C22.2028 33.4 23.2228 34.12 23.4148 34.48V45.928H24.8548V49.888H23.4148V55ZM18.8068 45.928V35.704C17.6788 38.32 16.4908 41.728 15.2428 45.928H18.8068Z" fill="#A32E2E"/>
<path d="M20.949 80.0175L1.5424 84.9659" stroke="black" stroke-width="2" stroke-linecap="round"/>
<path d="M11.8573 71.5569L1.19885 85" stroke="black" stroke-width="2" stroke-linecap="round"/>
</svg>
