<svg width="15" height="15" viewBox="0 0 15 15" fill="none" xmlns="http://www.w3.org/2000/svg">
<path d="M7.5 0C3.35417 0 0 3.35417 0 7.5C0 11.6458 3.35417 15 7.5 15C11.6458 15 15 11.6458 15 7.5C15 3.35417 11.6458 0 7.5 0ZM10.4167 6.20833L7.02083 9.66667C6.89583 9.79167 6.75 9.85417 6.5625 9.85417H6.54167C6.35417 9.85417 6.20833 9.77083 6.08333 9.625L4.5625 7.75C4.35417 7.47917 4.39583 7.08333 4.66667 6.875C4.9375 6.66667 5.3125 6.70833 5.52083 6.95833L6.60417 8.29167L9.52083 5.3125C9.75 5.04167 10.1458 5.02083 10.3958 5.25C10.6667 5.47917 10.6875 5.875 10.4583 6.125C10.4583 6.16667 10.4375 6.1875 10.4167 6.20833Z" fill="#343434"/>
</svg>
