<svg width="286" height="402" viewBox="0 0 286 402" fill="none" xmlns="http://www.w3.org/2000/svg">
    <pattern id="pattern" width="100%" height="100%">
        <image href="photo1.jpg" width="100%" height="100%" preserveAspectRatio="xMidYMin slice"></image>
    </pattern>
    <path d="M90.7441 2.00652C90.7477 1.1781 90.0791 0.503622 89.2506 0.500036L75.7508 0.441595C74.9223 0.438008 74.2479 1.10667 74.2443 1.93509C74.2407 2.76351 74.9094 3.43798 75.7378 3.44157L87.7377 3.49351L87.6857 15.4934C87.6821 16.3218 88.3508 16.9963 89.1792 16.9999C90.0076 17.0035 90.6821 16.3348 90.6857 15.5064L90.7441 2.00652ZM2.59295 90.0164L90.3002 3.06526L88.1881 0.93478L0.480837 87.8859L2.59295 90.0164Z" fill="black"/>
    <line x1="205.009" y1="400.952" x2="284.399" y2="319.671" stroke="black" stroke-width="3"/>
    <path d="M16.3018 374.402V88.5978L69.9847 36.4271H271.106V320.72L216.668 374.402H16.3018Z" stroke="black" stroke-width="3" fill="url(#pattern)"/>
</svg>
