<svg width="202" height="203" viewBox="0 0 202 203" fill="none" xmlns="http://www.w3.org/2000/svg">
<path d="M48.7197 100.783C82.3458 96.0073 93.3499 86.0974 95.8897 52.6701" stroke="#FFD600" stroke-width="5" stroke-linecap="round"/>
<path d="M143.392 101.114C109.766 96.3374 98.7617 86.4275 96.2219 53.0002" stroke="#FFD600" stroke-width="5" stroke-linecap="round"/>
<path d="M48.1133 101.216C81.7394 105.992 92.7434 115.902 95.2832 149.33" stroke="#FFD600" stroke-width="5" stroke-linecap="round"/>
<path d="M142.786 100.886C109.16 105.663 98.1557 115.572 95.6159 149" stroke="#FFD600" stroke-width="5" stroke-linecap="round"/>
<path d="M126.74 28.8271C144.791 26.2633 150.698 20.9437 152.061 3.00001" stroke="#FFD600" stroke-width="5" stroke-linecap="round"/>
<path d="M177.561 29.0046C159.51 26.4408 153.603 21.1212 152.24 3.1775" stroke="#FFD600" stroke-width="5" stroke-linecap="round"/>
<path d="M126.415 29.0598C144.466 31.6236 150.373 36.9432 151.736 54.8869" stroke="#FFD600" stroke-width="5" stroke-linecap="round"/>
<path d="M177.235 28.8821C159.185 31.4459 153.278 36.7656 151.914 54.7095" stroke="#FFD600" stroke-width="5" stroke-linecap="round"/>
<circle cx="26.8872" cy="39.3206" r="14.0095" fill="white" stroke="#FFA800" stroke-width="5"/>
<circle cx="172.171" cy="162.906" r="9.29249" fill="white" stroke="#FFA800" stroke-width="5"/>
<circle cx="42.9243" cy="172.34" r="8.34909" fill="white" stroke="#FFA800" stroke-width="5"/>
<line x1="111.934" y1="177.198" x2="111.934" y2="200.5" stroke="#BAA988" stroke-width="5" stroke-linecap="round"/>
<line x1="99.6699" y1="188.236" x2="123.915" y2="188.236" stroke="#BAA988" stroke-width="5" stroke-linecap="round"/>
<line x1="187.406" y1="63.9907" x2="187.406" y2="87.2926" stroke="#BAA988" stroke-width="5" stroke-linecap="round"/>
<line x1="175.142" y1="75.0287" x2="199.388" y2="75.0287" stroke="#BAA988" stroke-width="5" stroke-linecap="round"/>
<line x1="14.7646" y1="99.8404" x2="14.7646" y2="123.142" stroke="#BAA988" stroke-width="5" stroke-linecap="round"/>
<line x1="2.5" y1="110.878" x2="26.7454" y2="110.878" stroke="#BAA988" stroke-width="5" stroke-linecap="round"/>
</svg>